<?xml version="1.0" encoding="UTF-8"?>
<svg id="Layer_2" xmlns="http://www.w3.org/2000/svg" viewBox="0 0 213.84 216.86">
  <defs>
    <style>
      .cls-1 {
        fill: #2e317d;
      }
    </style>
  </defs>
  <g id="Layer_1-2" data-name="Layer_1">
    <g>
      <path class="cls-1" d="M179.12,195.78h-6.89v13.98l6.89-.44v-13.54ZM165.34,195.78h-6.89v13.98h6.89v-13.98ZM151.56,195.78h-6.89v13.98h6.89v-13.98ZM137.79,195.78h-6.89v13.98h6.89v-13.98ZM109.26,189.79c-3.13-3.18-8.05,1.82-4.92,5,3.13,3.17,8.05-1.82,4.92-5M186,205.83c2.16-1.01,4.28-4.06,5.25-6.25,5.14-11.6-2.63-23.79-14.92-24.78-22.55-1.81-47.41,1.4-70.2,0-14.46.77-21.91,18.31-12.04,29.29,2.09,2.33,7.7,5.67,10.77,5.67h19.16v-13.98h-7.75c-.12,0-.3,1.44-.93,2.33-6.03,8.52-18.74,4.59-18.9-5.6-.18-12.02,16.01-14.81,20.1-3.69l63.23-.03c2.32-.23,6.24,3.36,6.24,5.46v11.58ZM8.42,209.76h81.15c-7.71-8.67-9.08-20.3-3.45-30.57-3.86-1.58-9.19-2.87-12.45-5.5-4.35-3.51-7.13-12.03-12.77-12.81-1.76-.24-3.73.11-5.53-.06.16,3.97-3.34,4.98-4.74,7.04-2.39,3.51-2.48,8.58-6.27,12.42-4.64,4.69-8.09,4.14-13.79,5.22-7.99,1.51-6.67,8.17-11.38,12.48-2.33,2.14-4.75,2.15-7.25,3.56-1.82,1.03-5.84,4.67-4.82,6.9.09.2,1.19,1.29,1.3,1.32M205.8,146.86c-.6-2.8-3.24-5.49-6.03-6.12v6.12h6.03ZM192.89,139.87h-6.89v6.99h6.89v-6.99ZM41.36,118.9h-6.89v41.93h13.78v-8.08c0-.62-6.14-2.94-6.89-3.93v-29.92ZM27.58,118.9h-12.27c-15.54,13.31-7.98,39.51,12.27,41.5v-41.5ZM206.67,153.85h-22.17c-.95,0-3.24-1.77-3.89-2.61-2.59-3.36-1.25-11.12-1.5-15.51-.43-7.54-.95-18.52-2.19-25.73-1.17-6.78-6.01-11.11-12.66-12.05-14.59,1.07-31.23-1.47-45.58.05-7.3.77-12.1,6.41-12.75,13.71-.84,9.54-.1,19.65-1.31,29.24l-.84,26.88h100.09c.83,0,2.8-2,2.8-2.84v-11.14ZM27.58,97.94v-43.68c-.85.85-6.89,6.28-6.89,6.77v36.91h6.89ZM55.13,52.51v60.94c0,1.09-2.06,3.71-3.03,4.34-1.23.8-3.7.99-3.84,1.14-.85.88.62,21.66-.04,24.69-.02,2.37,5.89,3.19,6.7,4.55.66,1.09-.03,4.27.21,5.68h7.54c7.51,0,11.54,12.23,16.91,15.17,1.13.62,10.4,4.46,11.11,4.5,1.35.07,3.89-3.02,5.7-3.14l2.88-61.32-44.14-56.55ZM27.58,29.8l-13.45,13.65c-.56,1.41-.52,8.34-.35,10.18.13,1.41.41,2.79,2.17,2.17,1.09-1.75,11.63-10.98,11.63-11.81v-14.2ZM131.33,90.95L55.13,25.42v15.51l46.48,59.43c.58.51.69.1,1.07-.25,1.22-1.15,2.4-3.12,3.88-4.36,2.14-1.79,7.65-4.8,10.34-4.8h14.42ZM34.47,16.91v88.02H13.8v6.99h34.44V8.61c0-.89-1.69-1.92-2.56-1.32-2.43,2.76-8.03,5.25-10.22,7.78-.15.18-.98,1.73-1,1.83M26.5,167.83c-21.14-2.17-33.06-27.31-22.52-46,.62-1.1,4.07-5.41,4.1-5.76.02-.26-1.04-2.37-1.16-3.5-.24-2.19-.23-7.7.29-9.75.79-3.09,3.72-4.64,6.62-5.14l-.02-34.04c-.21-1.14-2.81-1.66-4.11-2.82-.95-.86-2.27-2.69-2.58-3.93-.67-2.66-.43-13.16.45-15.73,2.08-6.11,15.67-15.64,19.78-21.42.23-3.79.42-6.66,3.07-9.56,1.76-1.92,12.06-9.6,14.26-9.98,9.96-1.74,11.3,8.39,10.54,15.96l87.51,74.78h19.16v-13.98h6.89v14.86c7.65,2.03,13.7,8.96,15.02,16.86,1,6,1.26,13.8,1.76,20.05.11,1.37-.06,2.77,0,4.15h13.56c4.35,0,10.95,5.84,12.78,9.75,2.21,4.72,2.12,16.94,1.66,22.38-.34,4.03-4.16,9.81-8.41,9.81h-12.27c12.9,13.91,6.82,36.78-11.62,41.28-57.63,1.51-115.55.22-173.28.65-12.55-3.47-8.72-16.11.51-21.32,1.63-.92,4.97-1.8,5.96-2.7,1.32-1.2,3.26-6.3,4.76-8.27,4.19-5.54,7.73-5.21,13.69-6.2,6.26-1.04,8.29-4.74,10.17-10.44-5.32-.4-11.35.53-16.58,0"/>
      <path class="cls-1" d="M165.34,153.85l-3.65-41.93h-17.01v41.93h20.66ZM137.79,111.91h-17.65l-3.02,41.93h20.66v-41.93ZM118.73,105.02l44.26-.11c3.85.8,5.58,2.96,6.19,6.83.26,13.08,2.78,26.7,3.08,39.68.12,5.14-1.09,8.8-6.67,9.43-15.71-1.09-33.19,1.39-48.68,0-5.24-.47-6.82-4.11-6.67-8.99.41-13.19,2.75-26.85,3.08-40.12.56-3.61,1.96-5.55,5.43-6.72"/>
    </g>
    <rect class="cls-1" x="62.02" y="174.81" width="6.89" height="6.99"/>
    <rect class="cls-1" x="48.25" y="188.79" width="6.89" height="6.99"/>
    <rect class="cls-1" x="34.47" y="195.78" width="6.89" height="6.99"/>
    <rect class="cls-1" x="68.91" y="195.78" width="6.89" height="6.99"/>
  </g>
</svg>