<?xml version="1.0" encoding="UTF-8"?>
<svg id="Layer_2" xmlns="http://www.w3.org/2000/svg" viewBox="0 0 512 450.77">
  <defs>
    <style>
      .cls-1 {
        fill: #2e317d;
      }
    </style>
  </defs>
  <g id="Layer_1-2" data-name="Layer_1">
    <g>
      <path class="cls-1" d="M0,195.01c.78-3.2,1.49-6.42,2.36-9.6,7.81-28.57,33.41-48.77,62.99-49.56,9.32-.25,18.66-.09,27.98-.09,116.44,0,232.88-.02,349.32.01,30.02,0,54.79,16.6,64.9,43.51,1.91,5.08,2.98,10.48,4.44,15.73v16c-2.02,7.87-3.61,15.87-7.56,23.13-10.64,19.49-26.84,31.44-48.64,35.49-3.32.62-3.85,1.86-3.84,4.78.07,52.31.08,104.62-.02,156.94,0,3.46.89,4.91,4.44,4.46,1.47-.19,3.02-.09,4.48.16,3.55.61,5.6,2.94,6.02,6.4.43,3.51-1.18,6.25-4.47,7.55-1.64.65-3.57.81-5.37.81-18.33.06-36.65.04-54.98.02-1.32,0-2.69-.02-3.96-.33-3.9-.92-6.16-3.49-5.97-7.49.2-4.18,2.66-6.65,6.95-7.11q7.94-.85,7.94-8.9c0-10.83-.08-21.66.05-32.49.04-2.78-.74-4.07-3.62-3.69-.82.11-1.66.01-2.5.01-96.63,0-193.26.05-289.88-.13-5.17,0-6.34,1.39-6.17,6.32.39,11.32.32,22.66.02,33.98-.11,4.09,1.25,5.43,5.06,4.83.33-.05.67-.01,1,0,5.58.14,8.86,2.76,9,7.18.14,4.62-3.29,7.75-9.03,7.78-18.16.08-36.32.03-54.48.03-1.17,0-2.34.06-3.5-.04-4.97-.41-8.11-3.57-7.91-7.89.2-4.12,3.3-6.82,8.11-7.06q6.84-.34,6.84-6.95c0-51.15-.05-102.29.1-153.44.01-3.93-1.01-5.19-4.89-5.99-29.02-5.94-48.7-26.25-54.33-55.58-.18-.96-.59-1.88-.89-2.81,0-5.33,0-10.67,0-16ZM255.99,270.76c-58.16,0-116.32-.01-174.48.02-7.65,0-6.48-.86-6.49,6.72-.04,49.66-.02,99.32-.02,148.98,0,9.31.01,9,9.5,9.41,4.89.21,5.6-1.62,5.59-5.92-.14-44.83-.09-89.66-.08-134.48,0-6.34,2.64-9.68,7.5-9.67,4.86,0,7.47,3.35,7.48,9.69.02,15,.15,30-.08,44.99-.06,4.01.81,5.36,5.12,5.35,97.32-.13,194.64-.12,291.96-.03,3.73,0,5.41-.67,5.1-4.86-.39-5.3-.1-10.66-.09-15.99,0-10.33-.07-20.66.03-31,.05-5.08,3.04-8.17,7.48-8.16,4.44,0,7.27,3.09,7.47,8.2.05,1.33.01,2.67.01,4,0,42.99,0,85.99,0,128.98,0,8.78.01,8.5,9.02,8.88,4.71.19,6.13-.94,6.11-5.92-.21-50.99-.2-101.99-.01-152.98.02-4.87-.93-6.37-6.15-6.35-58.33.21-116.65.14-174.98.14ZM256,150.76c-23.16,0-46.33-.01-69.49,0-40.5.03-81-.44-121.48.27-34.61.61-58.42,36-47.23,68.8,7.64,22.4,27.38,35.91,52.72,35.91,123.66.02,247.31,0,370.97,0,1,0,2,.01,3-.02,35.71-1.27,59.74-33.09,50.49-66.86-6.3-23.02-26.87-38.06-52.49-38.09-62.16-.07-124.32-.02-186.48-.02ZM255.99,360.76c-47.49,0-94.99,0-142.48,0-8.51,0-8.56,0-8.49,8.74.05,7.02-.98,6.25,6.51,6.25,95.32.02,190.65.01,285.97.01,9.52,0,9.18-.02,9.64-9.27.26-5.13-1.6-5.84-6.16-5.83-48.33.16-96.66.1-144.98.1Z"/>
      <path class="cls-1" d="M195.75,60.51c0-16.83-.02-33.66.01-50.49.01-7.74,2.34-10.01,10.2-10.01C239.29,0,272.61,0,305.93.01c8.07,0,10.31,2.25,10.31,10.41.02,33.32.02,66.65,0,99.97,0,8.08-2.3,10.35-10.46,10.35-33.16.02-66.32.02-99.47,0-8.37,0-10.55-2.24-10.56-10.75-.02-16.5,0-32.99,0-49.49ZM210.75,60.07c0,13.82.09,27.65-.07,41.47-.04,3.26.93,4.29,4.23,4.28,27.31-.11,54.63-.12,81.94,0,3.54.02,4.52-1.12,4.47-4.55-.17-12.32-.07-24.65-.07-36.97,0-14.99-.11-29.98.08-44.97.04-3.54-1.02-4.62-4.49-4.41-4.65.29-9.34.3-13.98,0-3.6-.23-4.46,1.12-4.42,4.52.17,12.82.11,25.65.05,38.47-.04,7.41-2.58,9.95-9.88,9.99-8.16.05-16.32.03-24.48,0-8.26-.02-10.6-2.37-10.62-10.77-.03-12.66-.1-25.32.05-37.97.04-3.19-.8-4.44-4.18-4.25-4.81.27-9.67.26-14.48,0-3.26-.17-4.26.87-4.22,4.16.17,13.65.07,27.31.07,40.97ZM248.51,33.69v8.5c0,11.16,0,11.02,11.14,10.82,3.19-.06,3.94-1.22,3.89-4.11-.14-7.66-.04-15.32-.04-22.99,0-11.79,0-11.71-11.89-10.97-2.44.15-3.16.98-3.11,3.26.1,5.16.03,10.33.02,15.49Z"/>
      <path class="cls-1" d="M60,60.41c0-16.83-.02-33.66,0-50.5C60.02,2.5,62.49.02,69.88.01c33.66-.02,67.33-.02,100.99,0,7.3,0,9.86,2.56,9.86,9.99.03,33.5.03,67,0,100.49,0,7.73-2.5,10.24-10.21,10.24-33.5.03-67,.03-100.49,0-7.63,0-10.02-2.52-10.03-10.34-.02-16.67,0-33.33,0-50ZM75,60.18c0,13.83.02,27.66-.02,41.49,0,2.31-.12,4.14,3.23,4.13,28-.1,55.99-.08,83.99-.02,2.49,0,3.59-.71,3.58-3.4-.06-28-.07-55.99,0-83.99,0-2.59-.81-3.53-3.43-3.44-4.66.16-9.35.32-13.99-.04-4.22-.33-5.73.69-5.59,5.34.38,12.65.17,25.33.11,37.99-.03,6.96-2.73,9.61-9.75,9.66-8.5.06-17,.05-25.5,0-7.13-.04-9.7-2.57-9.72-9.57-.04-13-.14-26,.07-38.99.06-3.55-1.01-4.62-4.49-4.41-4.82.28-9.67.29-14.49,0-3.44-.21-4.1,1.14-4.07,4.26.15,13.66.06,27.33.06,40.99ZM127.9,33.52v-7.49c0-11.6,0-11.51-11.68-11.1-2.64.09-3.4.89-3.36,3.45.13,7.82.05,15.64.05,23.46,0,11.74,0,11.65,11.65,11.15,2.64-.11,3.46-.95,3.39-3.5-.15-5.32-.04-10.65-.04-15.97Z"/>
      <path class="cls-1" d="M392,0c16.67,0,33.33-.01,50,0,7.47,0,9.99,2.46,9.99,9.78.02,33.66.02,67.33,0,100.99,0,7.37-2.52,9.94-9.91,9.95-33.66.04-67.33.04-100.99,0-7.13,0-9.8-2.61-9.81-9.62-.05-33.83-.04-67.66,0-101.49,0-7.05,2.66-9.59,9.73-9.61,17-.03,34,0,51,0ZM437,60.47c0-13.5-.12-27,.08-40.49.05-3.7-.6-5.44-4.8-5.06-4.46.4-9.01.33-13.49.02-3.67-.26-4.86.78-4.79,4.63.25,12.99.13,26,.08,38.99-.03,6.71-2.64,9.29-9.44,9.35-8.33.07-16.66.04-25,.01-8.04-.03-10.52-2.47-10.54-10.39-.03-12.67-.17-25.33.09-37.99.08-3.87-1.13-4.86-4.78-4.61-4.48.31-9.01.32-13.49,0-3.74-.27-4.79.91-4.77,4.69.16,27.16.16,54.33,0,81.49-.02,3.82,1.18,4.74,4.85,4.73,27.16-.14,54.33-.16,81.49.02,3.98.03,4.62-1.36,4.57-4.89-.19-13.5-.08-27-.08-40.49ZM384.1,33.65v8.49c0,11.29,0,11.17,11.47,10.87,2.95-.08,3.63-1.09,3.58-3.8-.14-7.82-.05-15.64-.05-23.46,0-11.61,0-11.54-11.93-10.8-2.4.15-3.16.9-3.1,3.23.12,5.16.04,10.32.03,15.47Z"/>
      <path class="cls-1" d="M225.3,225.08c-9.02-14.47-9.03-29.09.08-44.04h-127.33c9.23,14.84,9.27,29.45-.33,44.71,5.53,0,10.27,0,15.01,0,10.83,0,21.66-.05,32.49.02,5.77.04,8.79,2.58,8.89,7.2.1,4.81-3.08,7.73-8.98,7.75-25.82.06-51.65.29-77.47-.07-20.05-.28-35.62-14.75-37.51-33.91-1.85-18.73,10.72-35.86,29.44-40.19,3.29-.76,6.61-.78,9.94-.78,124.29-.02,248.59.13,372.88-.15,22.8-.05,39.07,16.89,39.57,36.52.52,20.76-15.15,37.24-36.52,38.53-1.66.1-3.33.08-5,.08-86.31,0-172.61,0-258.92,0-1.67,0-3.35.09-4.99-.1-4.33-.51-7.3-3.64-7.28-7.5.01-4.11,3.16-7.28,7.84-7.32,14.16-.12,28.32-.04,42.49-.09,1.76,0,3.6.47,5.72-.65ZM286.47,181.03c9.52,15.26,8.93,29.86.15,44.4h127.45c-9.39-14.91-9.37-29.51-.1-44.4h-127.49ZM89.98,203.22c.02-12.47-10.04-22.47-22.57-22.43-12.3.03-22.27,9.88-22.39,22.11-.13,12.42,9.93,22.7,22.32,22.83,12.29.13,22.63-10.14,22.65-22.5ZM444.38,180.78c-12.49.05-22.49,10.16-22.37,22.64.12,12.16,10.17,22.2,22.35,22.3,12.3.11,22.61-10.17,22.62-22.53,0-12.47-10.06-22.45-22.6-22.4ZM256.01,180.79c-12.57,0-22.52,9.97-22.44,22.49.08,12.24,9.94,22.22,22.16,22.43,12.29.21,22.6-9.97,22.69-22.4.09-12.53-9.85-22.51-22.41-22.52Z"/>
      <path class="cls-1" d="M74.96,203.39c-.13,4.13-3.84,7.52-7.92,7.24-3.96-.27-7.11-3.72-7-7.66.12-4.19,3.63-7.36,7.92-7.13,4.01.22,7.13,3.59,7,7.55Z"/>
      <path class="cls-1" d="M444.26,195.83c4.27-.12,7.72,3.17,7.7,7.36-.01,3.93-3.29,7.32-7.22,7.47-4.09.15-7.69-3.35-7.7-7.48,0-3.98,3.19-7.24,7.22-7.35Z"/>
      <path class="cls-1" d="M263.37,203.42c-.12,3.98-3.43,7.23-7.37,7.23-4.13,0-7.49-3.52-7.36-7.72.13-4.29,3.51-7.35,7.85-7.09,4.08.24,7,3.47,6.88,7.59Z"/>
    </g>
  </g>
</svg>