<?xml version="1.0" encoding="UTF-8"?>
<svg id="Layer_2" xmlns="http://www.w3.org/2000/svg" viewBox="0 0 54.77 45.75">
  <defs>
    <style>
      .cls-1 {
        fill: #00aeef;
      }

      .cls-2 {
        fill: #2f317d;
      }
    </style>
  </defs>
  <g id="Layer_1-2" data-name="Layer_1">
    <g>
      <path class="cls-2" d="M49.48,10.87h5.03V.19h-13.65c1.78.86,3.3,1.94,4.54,3.21,2.05,1.99,3.42,4.49,4.08,7.46"/>
      <path class="cls-2" d="M44.88,27.63h9.73v-9.9h-4.81c-.31,2.91-1.23,5.42-2.74,7.47-.65.88-1.38,1.69-2.18,2.43"/>
      <polygon class="cls-2" points="54.77 34.82 43.53 34.82 50.84 45.49 54.77 45.49 54.77 34.82"/>
      <rect class="cls-2" x=".15" y="17.73" width="5.22" height="9.9"/>
      <rect class="cls-2" x=".26" y=".19" width="5.11" height="10.68"/>
      <rect class="cls-2" y="34.82" width="5.37" height="10.68"/>
      <path class="cls-1" d="M33.01,12.68c-.88-.64-2.07-1.03-3.55-1.15-.35-.03-.71-.05-1.09-.05h-7.63v9.38h7.7c.36,0,.69-.02,1.02-.05,1.52-.13,2.72-.54,3.57-1.25.99-.82,1.46-1.91,1.46-3.33v-.13c0-1.57-.48-2.69-1.48-3.42"/>
      <polygon class="cls-1" points="29.46 40.17 27.42 37.1 24.93 33.36 20.74 33.36 20.74 45.49 27.42 45.49 29.46 45.49 33 45.49 29.46 40.17"/>
      <path class="cls-2" d="M48.28,45.49l-7.31-10.68-3.54-5.16,1.19-.51c1.02-.43,1.96-.94,2.84-1.52,1.54-1.01,2.85-2.24,3.9-3.68,1.25-1.7,2.03-3.79,2.32-6.22.09-.74.14-1.51.14-2.31v-.14c0-1.59-.18-3.06-.52-4.41-.6-2.37-1.74-4.37-3.39-5.97-1.5-1.54-3.45-2.74-5.84-3.59-1.5-.53-3.23-.91-5.17-1.11-1.2-.13-2.48-.2-3.84-.2H7.48v45.75h11.15v-14.49h7.43l1.35,2.04,2.04,3.06,6.08,9.14.17.25h12.75l-.17-.25ZM34.38,21.19c-1.22,1.02-2.87,1.6-4.92,1.74-.33.02-.67.04-1.02.04h-9.81v-13.6h9.74c.38,0,.74.02,1.09.04,1.95.14,3.56.66,4.8,1.56,1.56,1.14,2.35,2.86,2.35,5.12v.14c0,2.05-.75,3.71-2.22,4.94"/>
    </g>
  </g>
</svg>