<?xml version="1.0" encoding="UTF-8"?>
<svg id="Layer_2" xmlns="http://www.w3.org/2000/svg" viewBox="0 0 198.88 193.2">
  <defs>
    <style>
      .cls-1 {
        fill: #2e317d;
      }
    </style>
  </defs>
  <g id="Layer_1-2" data-name="Layer_1">
    <g>
      <path class="cls-1" d="M76.61,169.45H18.42s-.58-.54-.58-.58v-102.77c0-1.84,2.87-5,4.65-5.46l152.65-.19c2.25.09,5.61,3.51,5.61,5.65v102.77s-.54.58-.58.58h-12.8c-1.1,0-1.54,2.69-1.35,3.69.14.71,1.6,2.15,2.12,2.15h24.63v6.42c0,1.52-2.92,5.22-4.72,5.38-59.01.5-118.18.32-177.21.09-1.93-.09-5.02-3.84-5.02-5.47v-6.42h68.07c.56,0,4.96,5.27,9.35,5.79,10.13-.58,21.4.93,31.39.06,4.59-.39,7.04-3.26,10.47-5.84,9.47-.81,20.6,1.03,29.87,0,3.65-.41,4.53-4.32,1.15-5.84l-33.37-.03c-2.43.33-4.29,5.24-8.55,5.83-8.9,1.22-20.27-.84-29.45.04-4.68-.53-6.45-5.36-8.14-5.84M28.04,36.39c2.46.56,2.52,4.85.3,5.59-5.31,1.76-6.17-6.92-.3-5.59M172.72,36.39c3.57.81,1.79,7.56-2.73,5.47-2.3-1.06-1.89-6.52,2.73-5.47M53.92,54.22c.03-.87-.25-1.82.38-2.54.98-1.11,6.02-2.49,7.78-4.26,1.11-1.11,3.86-7.77,3.89-9.36.06-2.47-2.7-7.37-2.3-8.87.13-.49,6.56-7,7.1-7.31,1.73-1.02,6.05,1.69,8.2,1.94,2.04.23,8.74-2.27,10.26-3.65,2.04-1.86,2.98-5.93,4.64-8.2,1.88-.08,10.08-.69,11.06.19,1.15,1.03,2.46,6.03,4.25,7.81,1.26,1.25,7.57,3.87,9.32,3.91,2.46.06,7.35-2.71,8.83-2.31.49.13,6.97,6.59,7.29,7.12,1.02,1.73-1.69,6.08-1.93,8.23-.23,2.02,2.19,8.54,3.46,10.09.61.74,1.64,1.31,2.46,1.81,2.37,1.46,6.89,2.06,6.08,5.38h-24.24c-.93-1.3-.94-3.09-1.55-4.67-1.01-2.56-4.11-8.82-7.59-6.06-3.42,2.71,3.07,7.28,2.75,10.73h-29.48c1.49-6.91,6.62-10.94,13.43-12.02,1.23-.19,2.54.14,3.75-.13,2.97-.65,3.02-5.39-1.06-5.77-9.13-.86-17.78,5.2-21.07,13.54-.58,1.46-.51,3.21-1.44,4.39h-24.24ZM35.18,11.27c-2.99,2.75-7.38-2-4.13-4.72,2.95-2.48,7.01,2.07,4.13,4.72M163.42,11.27c-2.88-2.65,1.18-7.2,4.13-4.72,3.25,2.73-1.14,7.48-4.13,4.72M0,183.07c1.57,5.22,5.1,9.25,10.66,10.12h177.27c9.43-1.66,12-10.62,10.57-19.18-.26-1.53-2.48-4.57-3.98-4.57h-7.95v-103.74c-.38-5.82-6.45-11.49-12.22-11.49h-23.86c1.47-8.03-5.25-7.5-9.28-10.73-.46-.37-.94-.64-.8-1.34h22.89c.12,0,.51,1.65.99,2.31,5.22,7.09,16.24,3.46,16.24-5.23s-11-12.36-16.24-5.23c-.48.65-.87,2.31-.99,2.31h-24.05c.21-2.67,2.21-5.25,1.91-7.94-.27-2.43-2.35-3.53-3.44-5.44l10.68-10.71c2.08-1.08,6.02-.11,8.42-.46,2.47,6.24,10.63,8.59,15.38,3.33,6.6-7.31-1.53-18.56-10.88-14.04-2.16,1.04-4.13,4.7-4.5,4.83-3.1,1.03-7.4-1.13-11.27,1.15-2.35,1.39-11.02,11.56-11.99,11.73-2.01-1.21-3.15-3.35-5.78-3.49-2.61-.14-7.8,2.95-9.49,2.57-.45-.09-4.79-2.07-5.05-2.34-2.82-2.84-2.04-8.92-7.94-9.56-2.86-.31-8.33-.23-11.26-.02-7.5.56-5.65,7.71-9.39,10.05-.39.25-4.62,1.95-4.89,1.94-1.6-.05-5.29-2.09-7.22-2.45-3.81-.72-4.8,1.36-7.53,3.3-.98-.17-9.64-10.34-11.99-11.73-3.87-2.28-8.17-.12-11.27-1.15-.34-.11-2.32-3.67-4.25-4.69-9.32-4.92-17.84,6.48-11.13,13.9,4.78,5.29,12.88,2.94,15.38-3.33,2.4.35,6.34-.62,8.42.46l10.69,10.71c-1.09,1.91-3.17,3.01-3.44,5.44-.3,2.69,1.7,5.27,1.92,7.94h-24.05c-.12,0-.51-1.65-1-2.31-5.24-7.13-16.24-3.57-16.24,5.23,0,8.69,11.03,12.33,16.24,5.23.48-.66.87-2.31,1-2.31h22.89c.13.7-.34.97-.8,1.34-4.03,3.23-10.75,2.69-9.29,10.73h-23.85c-5.82,0-11.76,5.69-12.21,11.49v103.74h-7.96c-1.29,0-3.72,2.99-4.07,4.28v9.34Z"/>
      <path class="cls-1" d="M29.87,72.52h138.86v84.48H29.87v-84.48ZM171.55,66.38l-143.44-.11c-1.62-.02-2.92.69-3.86,1.97l-.22,91.68c-.09,1.56.65,2.48,2.06,2.99,48.19.71,96.54.07,144.79.32,1.99-.08,3.85-1.11,3.68-3.31l-.22-91.68c-.72-.94-1.6-1.66-2.8-1.87"/>
      <path class="cls-1" d="M100.66,96.65c9.15-1.29,10.35-14.77,1.37-17.72-10.86.4-23.24-1.16-33.97-.2-7.54.68-10.48,10.37-5.08,15.45.74.7,3.87,2.47,4.71,2.47h7.56c-.08,2.84-.69,8.24,3.67,7.39.58-.11,1.73-1.05,1.94-1.56.46-1.1.38-9.69-.23-10.66-1.48-2.35-10.25.13-13.11-1.63-1.99-1.22-1.77-4.47.33-5.44l31.64-.18c4.16.48,4.01,5.77-1.16,6.25-2.96.28-10.18-1.43-10.99,2.21l-.25,49.96c-1.28,3.21-5.8,2.35-6-1.03l-.12-28.3c-1.44-2.55-4.7-2.46-5.65.39l.09,29.72c2.36,9.42,15.14,9.72,17.64.15l.03-47.28c2.36-.24,5.27.32,7.56,0"/>
      <path class="cls-1" d="M124.23,84.66c1.27.28,2.2,1.55,2.23,2.84l-.18,55.5c-1.46,3.35-5.99,2.29-6.03-1.38,1.19-17.15-1.58-36.46-.02-53.35.23-2.46,1.19-4.22,4-3.61M116.89,148.29c5.2,5.31,13.98,2.51,15.34-4.76v-57.55c-2.14-10.02-16-9.61-17.77.39,1.1,18.1-1.57,38.17-.05,56.04.18,2.15.96,4.33,2.48,5.88"/>
    </g>
  </g>
</svg>