<?xml version="1.0" encoding="UTF-8"?>
<svg id="Layer_2" xmlns="http://www.w3.org/2000/svg" viewBox="0 0 189.95 63.96">
  <defs>
    <style>
      .cls-1 {
        fill: #00aeef;
      }

      .cls-2 {
        fill: #fff;
      }

      .cls-3 {
        fill: none;
        stroke: #219cd8;
        stroke-miterlimit: 10;
      }
    </style>
  </defs>
  <g id="Layer_1-2" data-name="Layer_1">
    <g>
      <path class="cls-2" d="M57.24,18.1h5.82V5.74h-15.79c2.06,1,3.82,2.24,5.25,3.72,2.38,2.3,3.96,5.2,4.72,8.63"/>
      <path class="cls-2" d="M51.92,37.49h11.26v-11.46h-5.57c-.36,3.36-1.42,6.27-3.17,8.65-.75,1.02-1.59,1.95-2.52,2.81"/>
      <polygon class="cls-2" points="63.36 45.8 50.36 45.8 58.81 58.15 63.36 58.15 63.36 45.8"/>
      <rect class="cls-2" x=".18" y="26.03" width="6.04" height="11.46"/>
      <rect class="cls-2" x=".3" y="5.74" width="5.91" height="12.35"/>
      <rect class="cls-2" y="45.8" width="6.21" height="12.35"/>
      <path class="cls-1" d="M38.19,20.19c-1.02-.74-2.4-1.19-4.11-1.33-.4-.03-.82-.06-1.26-.06h-8.82v10.85h8.9c.41,0,.8-.02,1.18-.05,1.76-.15,3.15-.63,4.13-1.45,1.14-.95,1.69-2.21,1.69-3.85v-.16c0-1.82-.56-3.11-1.71-3.96"/>
      <polygon class="cls-1" points="34.08 51.98 31.72 48.43 28.85 44.11 24 44.11 24 58.15 31.72 58.15 34.08 58.15 38.18 58.15 34.08 51.98"/>
      <path class="cls-2" d="M55.85,58.15l-8.45-12.35-4.09-5.97,1.37-.58c1.18-.5,2.27-1.08,3.28-1.75,1.78-1.17,3.29-2.59,4.51-4.25,1.45-1.97,2.35-4.38,2.69-7.2.1-.86.16-1.75.16-2.68v-.16c0-1.84-.2-3.54-.61-5.1-.7-2.74-2.01-5.05-3.93-6.91-1.73-1.78-4-3.17-6.76-4.16-1.73-.62-3.74-1.05-5.98-1.29-1.39-.15-2.87-.23-4.44-.23H8.65v52.92h12.9v-16.77h8.6l1.57,2.36,2.36,3.55,7.03,10.57.19.29h14.75l-.2-.29ZM39.77,30.03c-1.41,1.18-3.33,1.85-5.69,2.02-.38.03-.77.05-1.18.05h-11.34v-15.73h11.26c.43,0,.85.02,1.26.05,2.26.17,4.12.77,5.55,1.81,1.8,1.32,2.71,3.31,2.71,5.93v.16c0,2.37-.87,4.3-2.57,5.72"/>
      <path class="cls-2" d="M91.63,6.23h11.19c1.83,0,3.37.22,4.63.68,1.26.45,2.29,1.08,3.08,1.89,1.4,1.35,2.1,3.19,2.1,5.51v.07c0,1.82-.44,3.33-1.32,4.53-.88,1.19-2.06,2.11-3.55,2.73l5.64,8.25h-7.57l-4.76-7.16h-2.87v7.16h-6.56V6.23ZM102.52,17.59c1.13,0,1.99-.25,2.6-.76.61-.5.91-1.18.91-2.04v-.07c0-.94-.32-1.65-.95-2.11-.63-.46-1.5-.69-2.6-.69h-4.29v5.68h4.33Z"/>
      <path class="cls-2" d="M115.56,5.22h6.73v4.73h-6.73v-4.73ZM115.7,11.61h6.46v18.28h-6.46V11.61Z"/>
      <path class="cls-2" d="M134.76,30.33c-1.44,0-2.76-.23-3.95-.69-1.19-.46-2.22-1.1-3.09-1.93-.87-.82-1.54-1.82-2.03-2.99-.48-1.17-.73-2.47-.73-3.89v-.07c0-1.33.23-2.57.68-3.73.45-1.16,1.09-2.17,1.91-3.04.82-.87,1.8-1.55,2.92-2.04s2.37-.74,3.72-.74c1.58,0,2.94.27,4.11.81,1.16.54,2.12,1.27,2.87,2.18.76.91,1.32,1.97,1.69,3.17.37,1.21.56,2.49.56,3.84v.64c0,.22-.01.45-.04.68h-12.23c.25,1.02.72,1.77,1.4,2.26.69.5,1.54.74,2.55.74.77,0,1.47-.14,2.11-.44.64-.29,1.29-.76,1.94-1.42l3.55,2.94c-.88,1.13-1.96,2.03-3.26,2.7-1.3.67-2.86,1.02-4.68,1.02M137.39,19.24c-.11-1.02-.45-1.82-1.02-2.42-.56-.6-1.28-.89-2.16-.89s-1.55.3-2.1.89c-.54.6-.9,1.4-1.08,2.42h6.35Z"/>
      <path class="cls-2" d="M146.15,11.61h6.46v3.68c.52-1.24,1.23-2.23,2.13-2.97.9-.74,2.12-1.08,3.65-1.02v6.76h-.54c-1.69,0-2.99.5-3.89,1.49-.9.99-1.35,2.54-1.35,4.66v5.68h-6.46V11.61Z"/>
      <path class="cls-2" d="M169.94,30.33c-1.46,0-2.81-.25-4.04-.74-1.23-.5-2.29-1.18-3.19-2.04s-1.6-1.88-2.1-3.03c-.49-1.15-.74-2.38-.74-3.68v-.07c0-1.31.25-2.54.76-3.7.51-1.16,1.21-2.18,2.11-3.04.9-.87,1.97-1.56,3.21-2.06,1.24-.51,2.59-.76,4.06-.76s2.81.25,4.04.76c1.23.5,2.29,1.19,3.19,2.04.9.86,1.6,1.86,2.1,3.01.5,1.15.74,2.37.74,3.68v.07c0,1.31-.25,2.54-.76,3.7-.51,1.16-1.21,2.18-2.11,3.04-.9.87-1.97,1.55-3.21,2.06-1.24.51-2.59.76-4.06.76M170.01,24.85c.58,0,1.12-.11,1.59-.32.47-.21.87-.5,1.2-.87.33-.37.58-.8.76-1.29.18-.49.27-1.01.27-1.54v-.07c0-.56-.1-1.08-.29-1.57-.19-.49-.46-.92-.81-1.29-.35-.37-.76-.67-1.23-.89-.47-.22-.99-.34-1.56-.34s-1.11.11-1.59.32c-.47.21-.88.5-1.2.87-.33.37-.58.8-.76,1.29-.18.49-.27,1.01-.27,1.54v.07c0,.56.09,1.09.29,1.58.19.49.46.92.81,1.29.35.37.76.66,1.23.88.47.23.99.34,1.56.34"/>
      <rect class="cls-2" x="182.92" y="5.22" width="6.46" height="24.67"/>
      <polygon class="cls-1" points="92.35 35.92 99.41 35.92 99.41 36.91 93.45 36.91 93.45 40.27 98.78 40.27 98.78 41.26 93.45 41.26 93.45 44.68 99.48 44.68 99.48 45.67 92.35 45.67 92.35 35.92"/>
      <polygon class="cls-1" points="101.69 35.92 102.72 35.92 108.87 43.74 108.87 35.92 109.94 35.92 109.94 45.67 109.07 45.67 102.77 37.67 102.77 45.67 101.69 45.67 101.69 35.92"/>
      <polygon class="cls-1" points="115.28 36.93 112.01 36.93 112.01 35.91 119.66 35.91 119.66 36.93 116.38 36.93 116.38 45.67 115.28 45.67 115.28 36.93"/>
      <polygon class="cls-1" points="121.74 35.92 128.79 35.92 128.79 36.91 122.84 36.91 122.84 40.27 128.16 40.27 128.16 41.26 122.84 41.26 122.84 44.68 128.86 44.68 128.86 45.67 121.74 45.67 121.74 35.92"/>
      <path class="cls-1" d="M131.07,35.92h4.2c.6,0,1.14.09,1.61.26.47.18.86.42,1.16.72.24.24.43.52.56.85.13.33.19.68.19,1.08v.02c0,.41-.06.78-.19,1.09-.13.32-.31.6-.55.84-.24.24-.52.43-.84.58-.33.16-.68.26-1.06.33l3,3.99h-1.35l-2.83-3.79h-2.79v3.79h-1.1v-9.76ZM135.18,40.89c.36,0,.7-.04,1.01-.14.31-.09.57-.22.8-.39.22-.18.4-.38.52-.63.13-.24.19-.53.19-.85v-.03c0-.6-.22-1.08-.66-1.41-.44-.34-1.05-.51-1.84-.51h-3.02v3.96h3Z"/>
      <path class="cls-1" d="M141.15,35.92h3.65c.55,0,1.05.07,1.5.22.45.14.84.35,1.16.61.32.26.57.58.74.97.17.38.26.81.26,1.3v.03c0,.53-.1.99-.31,1.38-.21.4-.48.73-.83,1-.35.27-.76.47-1.22.61-.46.14-.96.2-1.48.2h-2.37v3.44h-1.1v-9.76ZM144.67,41.24c.4,0,.77-.05,1.1-.15.33-.1.62-.25.85-.44.24-.19.42-.42.55-.68.13-.26.19-.55.19-.88v-.03c0-.69-.24-1.23-.72-1.58-.48-.36-1.12-.54-1.91-.54h-2.47v4.3h2.42Z"/>
      <path class="cls-1" d="M150.46,35.92h4.2c.6,0,1.14.09,1.61.26.47.18.86.42,1.16.72.24.24.43.52.56.85.13.33.2.68.2,1.08v.02c0,.41-.07.78-.2,1.09-.13.32-.31.6-.55.84-.24.24-.52.43-.84.58-.33.16-.68.26-1.06.33l3,3.99h-1.35l-2.83-3.79h-2.79v3.79h-1.1v-9.76ZM154.57,40.89c.36,0,.7-.04,1.01-.14.31-.09.57-.22.8-.39.22-.18.4-.38.52-.63.13-.24.19-.53.19-.85v-.03c0-.6-.22-1.08-.66-1.41-.44-.34-1.05-.51-1.84-.51h-3.02v3.96h3Z"/>
      <rect class="cls-1" x="160.64" y="35.92" width="1.1" height="9.76"/>
      <path class="cls-1" d="M167.96,45.81c-.78,0-1.49-.13-2.14-.38-.65-.26-1.26-.64-1.85-1.18l.68-.81c.51.47,1.03.81,1.55,1.04.52.23,1.12.34,1.8.34s1.19-.15,1.58-.46c.39-.31.59-.71.59-1.19v-.03c0-.22-.04-.42-.11-.6-.07-.18-.2-.34-.39-.49-.19-.15-.45-.28-.77-.4-.33-.12-.75-.24-1.27-.35-.56-.12-1.04-.26-1.46-.42-.41-.16-.76-.35-1.03-.57-.27-.22-.47-.48-.6-.78-.13-.3-.2-.65-.2-1.05v-.03c0-.38.08-.73.24-1.06.16-.32.38-.6.67-.84.29-.24.63-.42,1.02-.56.39-.14.82-.2,1.29-.2.71,0,1.34.1,1.87.3.54.2,1.05.5,1.55.9l-.64.85c-.45-.37-.91-.64-1.37-.81-.46-.17-.94-.25-1.44-.25-.64,0-1.15.15-1.52.46-.37.3-.56.68-.56,1.12v.03c0,.24.04.44.11.62.07.18.21.35.4.5.19.16.46.3.81.42.34.12.78.25,1.32.36,1.09.24,1.89.57,2.4,1,.52.43.77,1.02.77,1.76v.03c0,.42-.08.8-.25,1.13-.16.34-.39.63-.68.87-.29.24-.64.43-1.05.56-.41.13-.85.19-1.34.19"/>
      <polygon class="cls-1" points="173.52 35.92 180.57 35.92 180.57 36.91 174.62 36.91 174.62 40.27 179.94 40.27 179.94 41.26 174.62 41.26 174.62 44.68 180.64 44.68 180.64 45.67 173.52 45.67 173.52 35.92"/>
      <path class="cls-1" d="M186.21,45.81c-.78,0-1.49-.13-2.14-.38-.65-.26-1.26-.64-1.85-1.18l.69-.81c.51.47,1.03.81,1.55,1.04.52.23,1.12.34,1.8.34s1.19-.15,1.58-.46c.39-.31.59-.71.59-1.19v-.03c0-.22-.04-.42-.11-.6-.07-.18-.2-.34-.39-.49-.19-.15-.45-.28-.77-.4-.33-.12-.75-.24-1.26-.35-.56-.12-1.05-.26-1.46-.42-.41-.16-.76-.35-1.03-.57-.27-.22-.47-.48-.6-.78-.13-.3-.2-.65-.2-1.05v-.03c0-.38.08-.73.24-1.06.15-.32.38-.6.67-.84.29-.24.63-.42,1.02-.56.39-.14.82-.2,1.29-.2.71,0,1.34.1,1.87.3.54.2,1.05.5,1.55.9l-.64.85c-.45-.37-.91-.64-1.37-.81-.46-.17-.94-.25-1.44-.25-.64,0-1.15.15-1.52.46-.37.3-.56.68-.56,1.12v.03c0,.24.04.44.11.62.07.18.21.35.4.5.2.16.46.3.81.42.35.12.79.25,1.33.36,1.09.24,1.89.57,2.41,1,.52.43.77,1.02.77,1.76v.03c0,.42-.08.8-.25,1.13-.16.34-.39.63-.68.87-.29.24-.64.43-1.05.56-.41.13-.85.19-1.34.19"/>
      <polygon class="cls-2" points="92.35 48.98 93.45 48.98 93.45 57.72 98.95 57.72 98.95 58.74 92.35 58.74 92.35 48.98"/>
      <rect class="cls-2" x="108.05" y="48.98" width="1.1" height="9.76"/>
      <polygon class="cls-2" points="118.98 48.98 120.09 48.98 123.64 54.31 127.2 48.98 128.31 48.98 128.31 58.74 127.21 58.74 127.21 50.84 123.66 56.06 123.6 56.06 120.05 50.85 120.05 58.74 118.98 58.74 118.98 48.98"/>
      <rect class="cls-2" x="138.14" y="48.98" width="1.1" height="9.76"/>
      <polygon class="cls-2" points="151.65 50 148.37 50 148.37 48.98 156.02 48.98 156.02 50 152.75 50 152.75 58.74 151.65 58.74 151.65 50"/>
      <polygon class="cls-2" points="165.07 48.98 172.12 48.98 172.12 49.97 166.17 49.97 166.17 53.33 171.5 53.33 171.5 54.32 166.17 54.32 166.17 57.75 172.19 57.75 172.19 58.74 165.07 58.74 165.07 48.98"/>
      <path class="cls-2" d="M181.38,48.98h3.39c.76,0,1.46.12,2.1.37.64.25,1.19.59,1.64,1.03.46.44.82.95,1.07,1.54.25.59.38,1.23.38,1.92v.03c0,.69-.13,1.33-.38,1.92-.25.6-.61,1.11-1.07,1.55-.46.44-1.01.78-1.64,1.03-.64.25-1.33.38-2.1.38h-3.39v-9.76ZM184.77,57.72c.61,0,1.17-.09,1.67-.29.5-.2.93-.47,1.27-.81.35-.35.62-.75.81-1.22.19-.47.29-.98.29-1.52v-.03c0-.54-.1-1.04-.29-1.51-.19-.47-.46-.88-.81-1.22-.35-.35-.77-.62-1.27-.83-.5-.2-1.06-.3-1.67-.3h-2.29v7.72h2.29Z"/>
      <line class="cls-3" x1="77.79" x2="77.79" y2="63.96"/>
    </g>
  </g>
</svg>