<?xml version="1.0" encoding="UTF-8"?>
<svg id="Layer_2" xmlns="http://www.w3.org/2000/svg" viewBox="0 0 112.78 104.31">
  <defs>
    <style>
      .cls-1 {
        fill: #2e317d;
      }
    </style>
  </defs>
  <g id="Layer_1-2" data-name="Layer_1">
    <g>
      <path class="cls-1" d="M105.92,51.47c-3.05-1.07-5.55-2.99-8.87-2.65-2.24.23-4.52.06-6.78.04-1.47-.01-2.17-.66-2.18-2.14-.03-4.33-.03-8.66,0-12.99,0-1.54.71-2.19,2.25-2.2,1.5-.01,3.01,0,4.77,0-1.09-1.1-2.2-1.39-3.43-1.4-2.93,0-5.85-.03-8.78.02-.84.02-1.06-.24-1.01-1.05.08-1.17.04-2.34.01-3.51-.01-.5.17-.69.67-.68,3.55.03,7.11-.11,10.64.12,4.09.27,7.49,3.63,8.34,7.86.73,3.63,1.44,7.26,2.11,10.9.15.82.5,1.27,1.28,1.59,1.98.8,3.92,1.73,5.89,2.56,1.35.57,1.94,1.56,1.94,3.02-.02,5.73,0,11.47-.01,17.2,0,2.07-1.03,3.1-3.09,3.11-2.15.02-4.29,0-6.44,0-.45,0-.92-.1-.98.64-.23,3.14-1.6,5.74-3.9,7.87-.07.07-.11.18-.18.29.39.24.78.12,1.15.12,3.35.01,6.71,0,10.06.01,1.87,0,2.91,1.03,2.92,2.88.02,3.16.02,6.32,0,9.48-.01,1.86-1.04,2.84-2.93,2.87-1.05.02-2.39-.33-3.07.19-.73.56-.2,1.97-.26,3.01-.17,2.84-2.17,5.11-4.99,5.5-1.7.23-3.43.21-5.14.04-3.1-.32-5.14-2.65-5.3-5.84-.05-.92.42-2.13-.21-2.69-.66-.59-1.87-.18-2.83-.18-21.49-.01-42.99,0-64.48-.03-1.1,0-1.59.21-1.41,1.39.08.57.03,1.17,0,1.75-.18,3.02-2.28,5.3-5.28,5.61-1.7.18-3.43.2-5.14-.03-2.85-.39-4.91-2.74-5-5.61,0-.08,0-.16,0-.23-.1-.92.43-2.16-.23-2.67-.61-.46-1.79-.17-2.72-.18-2.39-.02-3.31-.93-3.31-3.33,0-2.93-.01-5.85,0-8.78,0-2.15,1-3.13,3.16-3.13,2.68,0,5.37,0,8.05,0,.1-.43-.23-.52-.4-.69-2.08-2.04-3.35-4.48-3.59-7.41-.05-.67-.29-.87-.93-.84-1.05.04-2.11.02-3.16,0-2.03-.03-3-.98-3.03-3.03-.03-1.52,0-3.04,0-4.56,0-14.55,0-29.1,0-43.65,0-.78-.06-1.57.35-2.28.6-1.03,1.56-1.34,2.68-1.33,2.73,0,5.46,0,8.19,0,11.74,0,23.48,0,35.23,0q1.6,0,1.6-1.54c0-3.9,0-7.8,0-11.7,0-2.2.94-3.16,3.12-3.16,8.54-.01,17.09-.01,25.63,0,2.15,0,3.12,1,3.12,3.17,0,8.5,0,17.01,0,25.51,0,2.23-.97,3.2-3.21,3.22-2.11.02-4.22.06-6.32-.02-1.03-.04-1.3.25-1.29,1.29.04,13.89.02,27.77.02,41.66,0,1.52.02,3.04,0,4.56-.01.59.16.82.79.81,4.29-.02,8.57-.01,12.86-.01.1-.46-.28-.56-.47-.75-2.04-2.03-3.28-4.45-3.52-7.32-.06-.77-.37-.87-1.02-.86-1.95.03-3.9-.02-5.85.02-.72.02-.96-.22-.93-.93.05-1.21.03-2.42,0-3.63-.01-.56.2-.79.75-.74.08,0,.16,0,.23,0q2.72-.07,2.72-2.76c0-1.33-.03-2.65.01-3.98.02-.73-.17-1.04-.98-1.03-.88.02-2.02.42-2.57-.2-.53-.6-.15-1.72-.16-2.61-.02-2.41,0-2.47,2.43-2.39,1.08.03,1.28-.34,1.28-1.33-.04-5.58,0-11.16-.04-16.73,0-.89.19-1.27,1.15-1.19,1.36.11,2.72.01,4.08-.77v32.24c.07.02.13.05.2.07.18-.27.36-.54.54-.81,4.88-7.27,15.5-6.99,19.93.56.41.7.83.99,1.64.95,1.4-.07,2.81-.06,4.21,0,.79.03,1.06-.27.96-1.01-.01-.08,0-.16,0-.23-.02-.74.18-1.59-.12-2.18-.33-.66-1.3-.15-1.94-.41-.43-.17-.89-.3-1.28-.55-2.28-1.43-2.13-3.73-2-5.96.11-1.89,1.11-3.2,2.9-3.87.21-.08.42-.16.87-.33ZM32.16,53c8.54,0,17.08,0,25.63,0,.74,0,1.2,0,1.2-1.02-.05-6.36-.04-12.72,0-19.07,0-.85-.29-1.04-1.07-1.02-2.26.04-4.52.04-6.79,0-1.98-.03-2.94-1.02-2.96-2.97-.02-1.99-.06-3.98.02-5.97.04-.98-.17-1.33-1.26-1.32-13.46.04-26.91.04-40.37,0-.97,0-1.23.24-1.22,1.21.04,9.63.05,19.27,0,28.9,0,1.11.36,1.25,1.33,1.25,8.5-.03,17.01-.02,25.51-.02ZM56.15,90.23c15.95,0,31.89,0,47.84-.01,1,0,2.28.45,2.91-.23.62-.66.19-1.94.19-2.94.02-1.84.18-1.64-1.61-1.64-32.28,0-64.57,0-96.85,0-1.08,0-2.48-.49-3.15.23-.65.7-.09,2.1-.21,3.17-.13,1.12.26,1.43,1.4,1.43,16.49-.04,32.99-.03,49.48-.03ZM74.8,16.08c0-3.24-.02-6.47.01-9.71,0-.75-.11-1.11-1-1.1-6.51.04-13.03.03-19.54,0-.71,0-.93.2-.93.92.03,6.51.03,13.03,0,19.54,0,.72.21.93.92.92,6.51-.02,13.03-.03,19.54,0,.89,0,1.01-.35,1-1.1-.03-3.16-.01-6.32-.01-9.48ZM32.13,58.25c-8.54,0-17.08.01-25.61-.02-.87,0-1.24.16-1.2,1.14.08,1.91.02,3.82.03,5.73,0,.29-.12.64.22.84.71.43,2.73-.11,3.16-.83,4.4-7.47,14.92-7.96,19.75-.82.96,1.41,1.88,1.84,3.45,1.75,1-.06,1.54-.32,2.08-1.21,4.3-7.05,14.43-7.6,19.24-.9,1.27,1.77,2.51,2.35,4.45,2.07.15-.02.31-.02.47,0,.63.08.79-.22.79-.81-.03-1.91-.07-3.82.01-5.73.04-.99-.27-1.23-1.23-1.22-8.54.04-17.07.02-25.61.02ZM65.48,56.57c0-7.84-.03-15.68.03-23.52,0-1.25-.63-1.14-1.44-1.14-.82,0-1.41-.08-1.41,1.16.05,15.56.05,31.13,0,46.69,0,1.19.49,1.21,1.36,1.19.86-.01,1.5.11,1.49-1.21-.07-7.72-.04-15.45-.04-23.17ZM18.88,64.49c-3.64.02-6.52,2.93-6.5,6.56.02,3.6,2.99,6.5,6.61,6.46,3.56-.04,6.45-2.96,6.46-6.51,0-3.57-2.97-6.52-6.58-6.5ZM97.1,70.97c0-3.6-2.95-6.5-6.58-6.48-3.57.02-6.49,2.93-6.49,6.46,0,3.62,2.92,6.55,6.52,6.56,3.61,0,6.56-2.94,6.55-6.53ZM43.94,64.49c-3.56.02-6.48,2.92-6.49,6.46-.01,3.64,2.99,6.6,6.65,6.56,3.55-.04,6.44-2.99,6.43-6.53-.02-3.61-2.95-6.5-6.58-6.48ZM91.82,40.2c0,1.32.03,2.65-.01,3.97-.02.66.12.99.89.97,1.67-.05,3.35-.04,5.02,0,.66.01.9-.14.75-.85-.57-2.74-1.09-5.49-1.61-8.24-.1-.54-.3-.81-.91-.78-1.09.05-2.18.05-3.27,0-.66-.03-.89.19-.87.86.04,1.36.01,2.72.01,4.09ZM51.49,80.2c2.32,0,4.43-.04,6.53.02.8.02.97-.27.95-1-.04-1.87-.01-3.74-.01-5.61,0-2.45,0-2.43-2.41-2.35-.68.02-.83.28-.87.89-.17,2.15-.94,4.09-2.24,5.8-.55.73-1.2,1.39-1.95,2.25ZM36.45,80.18c-3.23-3.87-3.25-3.87-4.17-8.37-.14-.68-.56-.48-.95-.53-.6-.07-.67.28-.71.77-.28,2.94-1.51,5.43-3.63,7.49-.17.16-.51.26-.37.64h9.82ZM13.95,98.96c.54,0,1.09,0,1.63,0,.51.01.88-.2.83-.73-.09-.92.37-1.91-.29-2.76-.05-.06-.22-.03-.34-.03-1.2,0-2.4,0-3.6,0-.39,0-.62.07-.7.55-.41,2.57-.09,2.97,2.47,2.97ZM98.46,95.44c-2.68,0-2.67,0-2.55,2.53.03.67.23,1.01.95.99,1.01-.03,2.02-.02,3.03,0,.69.02.95-.28.98-.97.14-2.56.16-2.56-2.41-2.56ZM107.49,56.99c0-.29,0-.48,0-.67-.02-.48.14-1.04-.69-1.03-.71.01-.96.36-.94,1.01.01.46,0,.93,0,1.39,0,.66.38.89.97.83,1.25-.12.34-1.12.65-1.54Z"/>
      <path class="cls-1" d="M92.02,51.61c.78,0,1.56-.07,2.33.02,1.03.12,1.59.79,1.59,1.82,0,.98-.55,1.7-1.51,1.77-1.58.11-3.19.11-4.77,0-1.04-.07-1.57-.85-1.53-1.87.03-.96.57-1.63,1.57-1.73.77-.08,1.55-.02,2.33-.02Z"/>
      <path class="cls-1" d="M73.53,16.64c.05,1.48-.59,2.37-1.75,2.43-1.12.06-1.87-.78-1.99-2.25-.26-3.3-2.62-5.62-5.71-5.63-3.07,0-5.47,2.33-5.76,5.61-.14,1.67-1.03,2.55-2.28,2.21-1.13-.31-1.49-1.14-1.47-2.23.12-5.15,4.36-9.33,9.48-9.33,5.11,0,9.31,4.07,9.46,9.19Z"/>
      <path class="cls-1" d="M63.58,24.54c-.6,0-1.48-.49-2.06-1.47-.58-.98-.7-2.08.02-2.96.66-.82.72-1.65.69-2.59-.02-.58-.04-1.17.02-1.75.11-.97.68-1.56,1.66-1.65,1.03-.09,1.73.43,1.97,1.42.13.52.07,1.08.08,1.62.02,1.07.03,2.04.7,3.06,1.21,1.84-.32,4.27-3.08,4.31Z"/>
      <path class="cls-1" d="M21.18,71.04c-.04,1.28-1.08,2.24-2.38,2.19-1.23-.05-2.2-1.08-2.17-2.3.04-1.26,1.12-2.25,2.39-2.2,1.22.05,2.19,1.1,2.16,2.31Z"/>
      <path class="cls-1" d="M90.57,68.73c1.22,0,2.24,1,2.27,2.21.03,1.26-1.01,2.3-2.29,2.29-1.24,0-2.24-.97-2.27-2.2-.03-1.25,1.02-2.31,2.29-2.3Z"/>
      <path class="cls-1" d="M43.92,73.23c-1.23-.03-2.22-1.04-2.21-2.26,0-1.25,1.09-2.28,2.35-2.24,1.21.04,2.22,1.07,2.21,2.27-.01,1.27-1.06,2.26-2.35,2.23Z"/>
    </g>
  </g>
</svg>